<?xml version="1.0" encoding="UTF-8"?>
<svg width="53px" height="50px" viewBox="0 0 53 50" version="1.1" xmlns="http://www.w3.org/2000/svg" xmlns:xlink="http://www.w3.org/1999/xlink">
    <title>Notes</title>
    <defs>
        <filter x="-34.3%" y="-38.4%" width="168.6%" height="176.8%" filterUnits="objectBoundingBox" id="filter-1">
            <feOffset dx="0" dy="2" in="SourceAlpha" result="shadowOffsetOuter1"></feOffset>
            <feGaussianBlur stdDeviation="2" in="shadowOffsetOuter1" result="shadowBlurOuter1"></feGaussianBlur>
            <feColorMatrix values="0 0 0 0 0   0 0 0 0 0   0 0 0 0 0  0 0 0 0.5 0" type="matrix" in="shadowBlurOuter1" result="shadowMatrixOuter1"></feColorMatrix>
            <feMerge>
                <feMergeNode in="shadowMatrixOuter1"></feMergeNode>
                <feMergeNode in="SourceGraphic"></feMergeNode>
            </feMerge>
        </filter>
    </defs>
    <g id="Screens" stroke="none" stroke-width="1" fill="none" fill-rule="evenodd">
        <g id="Survey/Introduction-" transform="translate(-526.000000, -801.000000)">
            <g id="Notes" filter="url(#filter-1)" transform="translate(535.000000, 810.000000)">
                <rect id="Rectangle" stroke="#000000" fill="#FFFFFF" fill-rule="nonzero" x="0.625" y="0.625" width="25" height="30" rx="1"></rect>
                <rect id="Rectangle" fill="#000000" fill-rule="nonzero" x="3.7375" y="19.5625" width="12.5" height="1.875" rx="0.5"></rect>
                <rect id="Rectangle" fill="#000000" fill-rule="nonzero" x="3.7375" y="12.8" width="18.75" height="1.875" rx="0.5"></rect>
                <rect id="Rectangle" fill="#000000" fill-rule="nonzero" x="3.7375" y="6.025" width="18.75" height="1.875" rx="0.5"></rect>
                <path d="M33.125,15.25 L20.55,25.1625 C20.4952001,25.2063751 20.4172999,25.2063751 20.3625,25.1625 L20.3625,25.1625 L16.325,26.25 C16.2639748,26.2718586 16.1958125,26.2520439 16.1560157,26.2008766 C16.116219,26.1497094 16.1137924,26.078767 16.15,26.025 L18.1625,22.375 L18.1625,22.375 C18.1385626,22.3055576 18.1641846,22.2286915 18.225,22.1875 L30.8,12.3 C31.6371846,11.5807058 32.8975048,11.669932 33.625,12.5 C33.9403891,12.9028306 34.063706,13.4235021 33.9625,13.925 C33.8413271,14.4487187 33.5460713,14.9158398 33.125,15.25 L33.125,15.25 Z" id="Path" stroke="#000000" fill="#FFFFFF" fill-rule="nonzero"></path>
                <line x1="19.0625" y1="21.55" x2="21.3875" y2="24.5" id="Path" stroke="#000000"></line>
                <line x1="29.8625" y1="13.0375" x2="32.1875" y2="15.9875" id="Path" stroke="#000000"></line>
            </g>
        </g>
    </g>
</svg>